<svg width="83" height="165" viewBox="0 0 83 165" fill="none" xmlns="http://www.w3.org/2000/svg">
<path fill-rule="evenodd" clip-rule="evenodd" d="M24.6667 0H49.3333V24.375H74V48.75H49.3333V73.125V86.8066V99H47.4359C34.8608 99 24.6667 88.9264 24.6667 76.5V73.125V48.75V24.375V0ZM49.3333 86.8066C49.3333 93.4587 54.832 98.9881 61.447 98.9881C61.8032 98.9881 62.1476 98.9642 62.504 98.9283C62.2189 98.0327 62.0646 97.0892 62.0646 96.086C62.0646 90.9626 66.1737 86.8304 71.2566 86.8304C72.0523 86.8304 72.8006 86.926 73.5487 87.129C73.5606 87.0215 73.5606 86.914 73.5606 86.8066C73.5606 80.1425 68.062 74.625 61.4351 74.625C61.0908 74.625 60.7584 74.6489 60.4259 74.6727L60.4256 74.6728C60.7225 75.5446 60.8532 76.4881 60.8532 77.4793C60.8532 82.6027 56.744 86.7349 51.661 86.7349C50.8772 86.7349 50.0815 86.6274 49.3452 86.4483C49.3333 86.5558 49.3333 86.6871 49.3333 86.8066ZM0.154389 34.586C0.85508 34.7651 1.56764 34.8607 2.32771 34.8607C6.63874 34.8607 9.90467 31.5764 9.90467 27.2293C9.90467 26.3217 9.75029 25.4498 9.47713 24.6736C4.71481 25.7484 0.97384 29.7014 0.154389 34.586ZM12.1136 48.7381C12.4699 48.7381 12.8143 48.7142 13.1706 48.6783C12.8856 47.7827 12.7312 46.8392 12.7312 45.836C12.7312 40.7126 16.8404 36.5804 21.9232 36.5804C22.7189 36.5804 23.4672 36.676 24.2154 36.879C24.2273 36.7715 24.2273 36.664 24.2273 36.5566V36.5566C24.2273 29.8925 18.7286 24.375 12.1018 24.375C11.7573 24.375 11.4248 24.3989 11.0923 24.4228C11.3892 25.2946 11.5198 26.2381 11.5198 27.2293C11.5198 32.3527 7.41069 36.4849 2.32771 36.4849C1.54389 36.4849 0.748194 36.3774 0.0118761 36.1983C0 36.3058 0 36.4371 0 36.5566C0 43.2086 5.49863 48.7381 12.1136 48.7381ZM14.7857 48.4276C19.5243 47.3288 23.2653 43.3758 24.0728 38.5032C23.384 38.3121 22.6952 38.2047 21.9232 38.2047C17.6122 38.2047 14.3464 41.4888 14.3464 45.836C14.3464 46.7675 14.4889 47.6393 14.7857 48.4276ZM51.661 85.1107C50.901 85.1107 50.1884 85.0151 49.4877 84.836C50.3072 79.9514 54.0481 75.9984 58.8105 74.9236C59.0836 75.6998 59.238 76.5717 59.238 77.4793C59.238 81.8264 55.9721 85.1107 51.661 85.1107ZM73.4062 88.7532C72.5987 93.6258 68.8577 97.5788 64.1191 98.6776C63.8222 97.8893 63.6797 97.0175 63.6797 96.086C63.6797 91.7388 66.9456 88.4547 71.2566 88.4547C72.0286 88.4547 72.7174 88.5622 73.4062 88.7532Z" fill="#474EFF"/>
<path d="M13.6977 131.69H8.0877C5.8977 131.69 5.6577 130.79 5.6577 129.59V109.16C5.6577 107.96 5.8977 107.06 8.0877 107.06H13.0977C15.2877 107.06 15.8277 107.93 15.8277 109.16C15.8277 110.21 15.2877 111.2 13.0977 111.2H10.2177V117.29H11.7777C13.9677 117.29 14.5077 118.16 14.5077 119.39C14.5077 120.44 13.9677 121.43 11.7777 121.43H10.2177V127.55H13.6977C15.8877 127.55 16.4277 128.54 16.4277 129.59C16.4277 130.82 15.8877 131.69 13.6977 131.69ZM21.2877 132.44C20.1477 132.44 19.1577 131.84 19.1577 129.8V121.43H17.7177C15.5277 121.43 15.1077 120.56 15.1077 119.33C15.1077 118.25 15.5577 117.29 17.7177 117.29H19.1577V109.31C19.1577 107.3 20.1777 106.7 21.2877 106.7C22.3677 106.7 23.3877 107.3 23.3877 109.31V129.8C23.3877 131.84 22.3977 132.44 21.2877 132.44ZM27.5877 132.44C26.4477 132.44 25.4577 131.84 25.4577 129.8V109.31C25.4577 107.3 26.4777 106.7 27.5877 106.7C28.6677 106.7 29.6877 107.3 29.6877 109.31V129.8C29.6877 131.84 28.6977 132.44 27.5877 132.44ZM42.5036 131.69H34.4936C32.3036 131.69 32.0636 130.79 32.0636 129.59V109.61C32.0636 107.6 33.2036 107 34.4936 107C35.7536 107 36.9236 107.54 36.9236 109.61V127.55H42.5036C44.6936 127.55 45.2336 128.54 45.2336 129.59C45.2336 130.82 44.6936 131.69 42.5036 131.69ZM52.2536 132.44C50.9036 132.44 49.8236 131.81 49.8236 129.8V109.31C49.8236 107.3 50.9636 106.7 52.2536 106.7C53.5136 106.7 54.6836 107.24 54.6836 109.31V129.8C54.6836 131.87 53.5436 132.44 52.2536 132.44ZM77.8864 122.24C74.1964 121.43 71.0164 118.85 68.9464 116.33C66.7264 118.85 63.5764 121.22 60.6064 122.03C60.0364 122.18 59.3464 122.27 58.7164 122.15C58.0264 122 57.3664 121.61 57.0964 120.68C56.6464 119.24 57.4264 118.22 58.8964 117.65C62.3464 116.36 66.4264 113.69 66.5164 110.63V109.46C66.5164 107.39 67.7464 106.85 69.0064 106.85C70.2664 106.85 71.4964 107.39 71.4964 109.46V110.63C71.5864 113.63 75.0964 116.69 78.6064 117.71C80.1364 118.16 81.0064 119.12 80.6764 120.59C80.4964 121.37 80.0464 121.88 79.2964 122.15C78.8464 122.3 78.3664 122.36 77.8864 122.24ZM79.2664 132.08H58.4164C56.2264 132.08 55.6864 131.09 55.6864 130.04C55.6864 128.81 56.2264 127.94 58.4164 127.94H79.2664C81.4564 127.94 81.9964 128.81 81.9964 130.04C81.9964 131.09 81.4564 132.08 79.2664 132.08ZM6.23121 161.9C5.54121 161.93 4.76121 161.72 4.28121 160.91C3.47121 159.62 4.04121 158.51 5.27121 157.52C6.20121 156.77 6.89121 156.05 7.34121 155.3C8.27121 153.86 8.60121 152.36 8.60121 150.8V141.32H6.92121C4.73121 141.32 4.19121 140.33 4.19121 139.28C4.19121 138.05 4.73121 137.18 6.92121 137.18H14.7812C16.9712 137.18 17.5112 138.05 17.5112 139.28C17.5112 140.33 16.9712 141.32 14.7812 141.32H13.4012V148.37C13.4012 151.67 13.1312 154.61 16.7312 157.31C18.0212 158.27 18.5312 159.41 17.7212 160.7C17.2712 161.39 16.6412 161.72 15.9212 161.75C15.4712 161.75 14.9912 161.69 14.5412 161.36C13.0712 160.19 11.9612 158.87 11.1212 157.52C10.3712 158.81 9.38121 160.13 8.03121 161.33C7.58121 161.72 6.86121 161.87 6.23121 161.9ZM21.2012 162.44C20.0612 162.44 19.0712 161.84 19.0712 159.8V139.31C19.0712 137.3 20.0912 136.7 21.2012 136.7C22.2812 136.7 23.3012 137.3 23.3012 139.31V146.6H25.7012V139.31C25.7012 137.3 26.7212 136.7 27.8312 136.7C28.9112 136.7 29.9312 137.3 29.9312 139.31V159.8C29.9312 161.84 28.9412 162.44 27.8312 162.44C26.6912 162.44 25.7012 161.84 25.7012 159.8V150.74H23.3012V159.8C23.3012 161.84 22.3112 162.44 21.2012 162.44ZM42.2371 161.69H34.0471C31.8571 161.69 31.6171 160.79 31.6171 159.59V139.31C31.6171 138.08 31.8571 137 34.0471 137H42.2371C44.4271 137 44.6671 138.08 44.6671 139.31V159.59C44.6671 160.79 44.4271 161.69 42.2371 161.69ZM36.3571 157.55H39.9271V141.14H36.3571V157.55ZM52.7071 162.44C51.3571 162.44 50.2771 161.81 50.2771 159.8V139.31C50.2771 137.3 51.4171 136.7 52.7071 136.7C53.9671 136.7 55.1371 137.24 55.1371 139.31V159.8C55.1371 161.87 53.9971 162.44 52.7071 162.44ZM78.7529 152.24C78.1229 152.21 77.4329 152.03 76.9529 151.67C75.4229 150.62 74.1029 149.18 73.3829 148.01C72.6329 149.36 70.8929 150.98 69.6929 151.7C68.5229 152.42 67.0829 152.18 66.3929 151.1C65.7029 149.93 65.8829 148.82 67.2029 147.89C70.1729 145.82 70.2329 143.69 70.3229 140.81V139.46C70.3229 137.45 71.7029 136.85 72.9929 136.85C74.3429 136.85 75.6029 137.48 75.6029 139.46V141.23C75.6029 144.29 76.7429 145.64 79.6529 147.86C80.9429 148.82 81.4529 149.96 80.6429 151.25C80.1629 152.06 79.4429 152.27 78.7529 152.24ZM79.4129 162.08H58.5629C56.3729 162.08 55.8329 161.09 55.8329 160.04C55.8329 158.81 56.3729 157.94 58.5629 157.94H79.4129C81.6029 157.94 82.1429 158.81 82.1429 160.04C82.1429 161.09 81.6029 162.08 79.4129 162.08ZM60.7829 151.52C59.6729 152.24 57.7229 152.12 57.0029 150.8C56.3129 149.45 56.9129 148.31 58.2629 147.5C61.4729 145.58 61.9829 143.9 61.9829 141.2V139.46C61.9829 137.39 63.3629 136.85 64.6229 136.85C65.8829 136.85 67.2629 137.39 67.2629 139.46V141.77C67.2629 143.33 66.8429 145.07 65.8229 146.75C64.8029 148.43 63.1529 150.08 60.7829 151.52Z" fill="#474EFF"/>
</svg>
